# xmcd CD database file
#
# Track frame offsets:
#	150
#	6825
#	31045
#	56185
#	66100
#	82895
#	84250
#	107290
#	134200
#	157120
#	181190
#	185055
#	214025
#
# Disc length: 3122 seconds
#
# Revision: 0
# Processed by: cddbd v1.5.2PL0 Copyright (c) Steve Scherf et al.
# Submitted via: CDex 1.70beta2
#
DISCID=a80c300d
DTITLE=AO - Grow Wild
DYEAR=2000
DGENRE=New Age
TTITLE0=AO
TTITLE1=Chameleon Makebelieve
TTITLE2=Haumea
TTITLE3=Grow Wild
TTITLE4=Helios
TTITLE5=Little Dove's Reef
TTITLE6=Amerika
TTITLE7=Aumakua
TTITLE8=Those Eyes
TTITLE9=Gaia
TTITLE10=Little Dove's Reel Reprise
TTITLE11=Mother
TTITLE12=AO Reprise
EXTD=YEAR: 2000
EXTT0=
EXTT1=
EXTT2=
EXTT3=
EXTT4=
EXTT5=
EXTT6=
EXTT7=
EXTT8=
EXTT9=
EXTT10=
EXTT11=
EXTT12=
PLAYORDER=
